<svg xmlns="http://www.w3.org/2000/svg" width="696" height="696" viewBox="0 0 696 696">
  <path id="icon_right" d="M480-357,603-480,480-603l-19,19,90,90H346v28H551l-90,90Zm.17,225Q408-132,344.44-159.39T233.87-233.74q-47.02-46.96-74.44-110.43T132-479.83q0-72.17,27.39-135.73t74.35-110.57q46.96-47.02,110.43-74.44T479.83-828q72.17,0,135.73,27.39t110.57,74.35q47.02,46.96,74.44,110.43T828-480.17q0,72.17-27.39,135.73T726.26-233.87q-46.96,47.02-110.43,74.44T480.17-132ZM480-160q134,0,227-93t93-227q0-134-93-227T480-800q-134,0-227,93T160-480q0,134,93,227T480-160ZM480-480Z" transform="translate(-132 828)" fill="#007aff"/>
</svg>
